<?xml version="1.0" encoding="utf-8"?>
<!-- Generator: Adobe Illustrator 26.2.1, SVG Export Plug-In . SVG Version: 6.00 Build 0)  -->
<svg version="1.1" id="Camada_1" xmlns="http://www.w3.org/2000/svg" xmlns:xlink="http://www.w3.org/1999/xlink" x="0px" y="0px"
	 viewBox="0 0 776.1 538.4" style="enable-background:new 0 0 776.1 538.4;" xml:space="preserve">
<style type="text/css">
	.st0{fill:#2F2E41;}
	.st1{fill:#FFB6B6;}
	.st2{fill:#7D4695;}
	.st3{fill:#3F3D56;}
	.st4{fill:#F2F2F2;}
	.st5{fill:#CCCCCC;}
	.st6{fill:#E6E6E6;}
</style>
<path class="st0" d="M292.5,105.1c-5.9-21.5,41.8-40,54.3-22.7c1.7-2.5,8.2-4,11.1-3.2s5.4,2.6,7.9,4.5c3.3,2.6,6.8,5.2,8.8,8.9
	c2.1,3.7,2.4,8.7-0.4,11.8c-2.2,2.5-8.7,4.2-12,4.8c-2.3,0.5-4.2,0.8-5.9,1.1c-1.5-2.2-2.2-4.8-2-7.5c-2.2,1.5-3.8,4-4,6.7
	c0,0.6,18.6,69.2,18.6,69.2c-1.9,1.1-4.3,2.2-7,3.2c-4.6-7-8.5-15.3-11-23.9c-0.6,5.3-0.5,11.1,0.2,17c0.4,3.1,0.9,6.3,1.6,9.4
	c-22.2,4.8-55.5,3.2-70-17.1c0-0.1,0-0.2,0-0.3c-0.1-3.8-5.3-4.8-6.7-1.2c-0.4,0.9-0.7,1.7-1,2.3
	C270.8,153.1,276.3,135.6,292.5,105.1L292.5,105.1z"/>
<path class="st1" d="M593.7,276c-5.2,6.2-14.5,7-20.8,1.8c-0.6-0.5-1.2-1.1-1.7-1.7l-70,22.2l-10.9-17.8l83.3-25.7
	c6.5-4.8,15.7-3.4,20.6,3.1C598.3,263.3,598,270.8,593.7,276L593.7,276z"/>
<path class="st2" d="M345.8,220.6c0,0,31-34.9,44.5-20.1c13.5,14.8,55.6,79.7,55.6,79.7l98.3-20.7l9.5,25.9l-111.6,36.2
	c-8.4,2.7-17.6-0.1-23-7.1L345.8,220.6z"/>
<path class="st0" d="M413.1,538.4H259.4l-0.1-1.2l-0.1-0.8l-1.3-11.2l-1.9-16l-0.7-6.1c0-0.3-0.1-0.6-0.1-0.9c-0.6-4-1-8-1.1-12
	c-0.2-5.5,0.1-11,0.7-16.4v0c0.3-2.9,0.7-5.8,1.2-8.7c0.6-3.7,1.4-7.3,2.3-10.9c1-4.1,2.2-8.1,3.5-12c1.5-4.5,3.1-8.9,4.7-13
	c0.2-0.4,0.4-0.9,0.5-1.3l0,0c8.7-21.2,18.6-35.7,18.6-35.7h112c0,0,5.2,22.7,7.8,41.5c0.4,3,0.8,5.8,1,8.5c0.5,4.9,0.6,9.1,0.2,12
	c-0.2,1.8-0.7,3-1.4,3.6c-6.2,5.3,0.9,16.4,0.9,16.4s5.3,8.1,0.7,12.6c-0.9,0.9-1.4,2.1-1.7,3.4c-0.4,2.1,0,4.6,0.5,6.9
	c0.5,2.2,1.3,4.2,1.7,5.1c0.2,0.4,0.3,0.7,0.3,0.7l0.8,6.2l0.8,5.9l1.3,10.2l0.4,1.8l2,9.4l0.2,0.8L413.1,538.4z"/>
<path class="st2" d="M335.5,172.9l-47,4.2l-8.7,27l-9.4,1.4c-16.1,2.3-25.7,19.3-19.5,34.3l8.3,19.9c0,0-12.2,37.7,2.8,53.5
	l6.4,69.7L254,428.8l168.1,5.4l-28.6-57.6l-0.8-35.8c0,0,18.3-64.7,1.3-85.2l-6.6-58.5l-34.5-5.2L335.5,172.9L335.5,172.9z"/>
<circle class="st1" cx="329.5" cy="129.6" r="38.8"/>
<path class="st0" d="M271.3,108.1c-5.9-21.5,41.8-40,54.3-22.7c1.7-2.5,8.2-4,11.1-3.2s5.4,2.6,7.9,4.5c3.3,2.6,6.8,5.2,8.8,8.9
	c2.1,3.7,2.4,8.7-0.4,11.8c-2.2,2.5-8.7,4.2-12,4.8c-2.3,0.5-4.2,0.8-5.9,1.1c-1.5-2.2-2.2-4.8-2-7.5c-2.2,1.5-3.8,4-4,6.7
	c0,0.6,18.6,69.2,18.6,69.2c-1.9,1.1-4.3,2.2-7,3.2c-4.6-7-8.5-15.3-11-23.9c-0.6,5.3-0.5,11.1,0.2,17c0.4,3.1,0.9,6.3,1.6,9.4
	c-22.2,4.8-55.5,3.2-70-17.1c0-0.1,0-0.2,0-0.3c-0.1-3.8-5.3-4.8-6.7-1.2c-0.4,0.9-0.7,1.7-1,2.3
	C249.7,156.1,255.1,138.6,271.3,108.1z"/>
<path class="st3" d="M603.2,537.2h-522l-81,1l568.1-33.9C587.2,503.1,603.2,518.2,603.2,537.2L603.2,537.2L603.2,537.2z"/>
<polygon class="st3" points="731,536.4 731,538.4 0,538.4 0,0 2,0 2,536.4 "/>
<path class="st2" d="M652.8,124.5H519.7c-3.1,0-5.6-2.5-5.6-5.5s2.5-5.5,5.6-5.5h133.1c3.1,0,5.6,2.5,5.6,5.5
	S655.9,124.5,652.8,124.5L652.8,124.5z"/>
<path class="st3" d="M586.2,142.4c-0.5-1.2-2.2-1.2-2.7,0c-3.5,8.6-8.4,18.1-13.8,25.4c-0.9,1.2,0.3,2.7,1.7,2.2l11.5-4.2v71.3h3.9
	v-71.3l11.5,4.2c1.4,0.5,2.6-1.1,1.7-2.2C594.6,160.5,589.7,151,586.2,142.4z"/>
<path class="st4" d="M772.6,165.3h-82c-1.9,0-3.4-1.5-3.4-3.4s1.5-3.4,3.4-3.4h82c1.9,0,3.4,1.5,3.4,3.4S774.5,165.3,772.6,165.3z"
	/>
<path class="st4" d="M731.6,176.3c-0.3-0.8-1.4-0.8-1.7,0c-2.1,5.3-5.2,11.2-8.5,15.7c-0.5,0.7,0.2,1.7,1,1.4l7.1-2.6v43.9h2.4
	v-43.9l7.1,2.6c0.8,0.3,1.6-0.7,1-1.4C736.8,187.5,733.7,181.6,731.6,176.3z"/>
<circle class="st4" cx="731.6" cy="259.3" r="17.8"/>
<path class="st4" d="M509.6,64.3h-82c-1.9,0-3.4-1.5-3.4-3.4s1.5-3.4,3.4-3.4h82c1.9,0,3.4,1.5,3.4,3.4S511.5,64.3,509.6,64.3z"/>
<path class="st4" d="M468.6,75.3c-0.3-0.8-1.4-0.8-1.7,0c-2.1,5.3-5.2,11.2-8.5,15.7c-0.5,0.7,0.2,1.7,1,1.4l7.1-2.6v43.9h2.4V89.8
	l7.1,2.6c0.8,0.3,1.6-0.7,1-1.4C473.8,86.5,470.7,80.6,468.6,75.3L468.6,75.3z"/>
<circle class="st4" cx="468.6" cy="158.3" r="17.8"/>
<path class="st1" d="M262,503.7c4.2-7,2-16-5-20.2c-0.7-0.4-1.4-0.8-2.1-1.1l-1.5-73.4l-20.4-4.6l2.4,87.2c-2.5,7.7,1.8,16,9.5,18.5
	C251.4,512.2,258.4,509.5,262,503.7L262,503.7z"/>
<path class="st2" d="M276.2,214.2c0,0-25-6-33,11s-8.7,91-8.7,91l-4.3,150l31.7-1.4l25.3-184.6L276.2,214.2z"/>
<g>
	<path class="st5" d="M264.9,525.8c0.6,0.7,1.4,1.1,2.3,1.1h162.3c1.6,0,3-1.3,3-3c0-0.2,0-0.4-0.1-0.6l-2.5-12
		c-0.2-1-0.9-1.8-1.9-2.2c-0.3-0.1-0.7-0.2-1.1-0.2H269.8c-0.4,0-0.7,0.1-1.1,0.2c-0.9,0.4-1.6,1.2-1.9,2.2l-2.5,12
		C264.1,524.2,264.4,525.1,264.9,525.8z"/>
	<path class="st6" d="M202.8,257.9v187.3c0,5,4,9,9,9h277.5c5,0,9-4,9-9V257.9c0-5-4-9-9-9H211.8
		C206.8,248.9,202.8,252.9,202.8,257.9z"/>
	<path class="st5" d="M385.2,414.1c-0.3-0.1-0.7-0.2-1-0.2h-64.9c-1.9,0-3.5,1.5-3.5,3.5V520h71.9V417.4
		C387.7,415.9,386.7,414.5,385.2,414.1z M359.2,464.5c0,4.2-3.5,7.7-7.7,7.6c-4.2,0-7.6-3.4-7.6-7.6v-11.9c0-4.2,3.5-7.6,7.7-7.6
		c4.2,0,7.6,3.4,7.6,7.6V464.5z"/>
</g>
</svg>
